# xmcd
#
# Track frame offsets: 
#        150
#        24865
#        38902
#        64280
#        79739
#        107127
#        120522
#        135591
#        147395
#        180360
#        200615
#        219004
#        243545
#        257684
#        303389
#
# Disc length: 4269 seconds
#
# Revision: 2
# Processed by: cddbd v1.5.2PL0 Copyright (c) Steve Scherf et al.
# Submitted via: ExactAudioCopyFreeDBPlugin 1.0
#
DISCID=cc10ab0f
DTITLE=Dyke and the Blazers - We Got More Soul
DYEAR=2007
DGENRE=Rhythm and Blues
TTITLE0=Funky Broadway, Parts 1 and 2
TTITLE1=So Sharp
TTITLE2=Swamp Walk
TTITLE3=Broadway Combination
TTITLE4=Uhh, Parts 1 and 2
TTITLE5=Extra Funk
TTITLE6=City Dump
TTITLE7=Don't Bug Me
TTITLE8=Funky Broadway Time, Part 1
TTITLE9=Funky Broadway Time, Part 2
TTITLE10=She Knows It
TTITLE11=Why Am I Treated So Funky Bad?
TTITLE12=Triple Funk
TTITLE13=The Wrong House
TTITLE14=KGFJ Promos
EXTD=
EXTT0=
EXTT1=
EXTT2=
EXTT3=
EXTT4=
EXTT5=
EXTT6=
EXTT7=
EXTT8=
EXTT9=
EXTT10=
EXTT11=
EXTT12=
EXTT13=
EXTT14=
PLAYORDER=
